<svg aria-hidden="true" focusable="false" data-prefix="fab" data-icon="github" class="w-6 h-6 text-gray-600" role="img" xmlns="http://www.w3.org/2000/svg" viewBox="0 0 496 512"><path fill="currentColor" d="M165.9 397.4c0 2-2.3 3.5-5.2 3.5s-5.2-1.5-5.2-3.5 2.3-3.5 5.2-3.5 5.2 1.5 5.2 3.5zm-33.2-6.5c-.7 1.5-.3 3.2 1 4 1.3.9 3.1.5 3.8-.8.7-1.5.3-3.2-1-4-1.3-.8-3.1-.5-3.8.8zm31.8-2.2c-1.1 1.2-1 3.1.3 4.3 1.3 1.1 3.2 1 4.3-.3 1.1-1.2 1-3.1-.3-4.3-1.3-1.2-3.1-1-4.3.3zm44.8 34.4c-1.3.9-1.6 2.8-.6 4.1.9 1.3 2.8 1.6 4.1.6 1.3-.9 1.6-2.8.6-4.1-.9-1.3-2.8-1.7-4.1-.6zm-11.8-13.7c-1.5 1.1-1.9 3.3-.8 4.7 1.1 1.5 3.3 1.9 4.7.8 1.5-1.1 1.9-3.3.8-4.7-1.1-1.5-3.3-1.9-4.7-.8zm27.7 15.5c-1.5 1.1-1.9 3.3-.8 4.7 1.1 1.5 3.3 1.9 4.7.8 1.5-1.1 1.9-3.3.8-4.7-1.1-1.5-3.3-1.9-4.7-.8zm85.2-32.2c-11.8 0-21.3-10.3-21.3-22.9s9.5-22.9 21.3-22.9c11.8 0 21.3 10.3 21.3 22.9s-9.5 22.9-21.3 22.9zm0-40.1c-9.2 0-16.6 8.3-16.6 18.2 0 9.8 7.4 18.2 16.6 18.2 9.2 0 16.6-8.3 16.6-18.2 0-9.8-7.4-18.2-16.6-18.2zm-66.1 38.6c-1.9 1.4-2.3 4.1-.9 6.1 1.4 1.9 4.1 2.3 6.1.9 1.9-1.4 2.3-4.1.9-6.1-1.5-1.9-4.2-2.3-6.1-.9zm-22.4 4.1c-1.9 1.4-2.3 4.1-.9 6.1 1.4 1.9 4.1 2.3 6.1.9 1.9-1.4 2.3-4.1.9-6.1-1.5-1.9-4.2-2.3-6.1-.9zm27.7-15.5c-1.9 1.4-2.3 4.1-.9 6.1 1.4 1.9 4.1 2.3 6.1.9 1.9-1.4 2.3-4.1.9-6.1-1.4-1.9-4.1-2.3-6.1-.9zm19.7 45.1c-11.8 0-21.3-10.3-21.3-22.9s9.5-22.9 21.3-22.9c11.8 0 21.3 10.3 21.3 22.9s-9.5 22.9-21.3 22.9zm0-40.1c-9.2 0-16.6 8.3-16.6 18.2 0 9.8 7.4 18.2 16.6 18.2 9.2 0 16.6-8.3 16.6-18.2 0-9.8-7.4-18.2-16.6-18.2zm-66.1 38.6c-1.9 1.4-2.3 4.1-.9 6.1 1.4 1.9 4.1 2.3 6.1.9 1.9-1.4 2.3-4.1.9-6.1-1.5-1.9-4.2-2.3-6.1-.9zm-22.4 4.1c-1.9 1.4-2.3 4.1-.9 6.1 1.4 1.9 4.1 2.3 6.1.9 1.9-1.4 2.3-4.1.9-6.1-1.4-1.9-4.1-2.3-6.1-.9zm27.7-15.5c-1.9 1.4-2.3 4.1-.9 6.1 1.4 1.9 4.1 2.3 6.1.9 1.9-1.4 2.3-4.1.9-6.1-1.4-1.9-4.1-2.3-6.1-.9zm19.7 45.1c-11.8 0-21.3-10.3-21.3-22.9s9.5-22.9 21.3-22.9c11.8 0 21.3 10.3 21.3 22.9s-9.5 22.9-21.3 22.9zm0-40.1c-9.2 0-16.6 8.3-16.6 18.2 0 9.8 7.4 18.2 16.6 18.2 9.2 0 16.6-8.3 16.6-18.2 0-9.8-7.4-18.2-16.6-18.2zm-66.1 38.6c-1.9 1.4-2.3 4.1-.9 6.1 1.4 1.9 4.1 2.3 6.1.9 1.9-1.4 2.3-4.1.9-6.1-1.5-1.9-4.2-2.3-6.1-.9zm-22.4 4.1c-1.9 1.4-2.3 4.1-.9 6.1 1.4 1.9 4.1 2.3 6.1.9 1.9-1.4 2.3-4.1.9-6.1-1.5-1.9-4.2-2.3-6.1-.9z"/></svg>
